<mxfile host="app.diagrams.net" modified="2024-06-05T08:34:41.150Z" agent="Mozilla/5.0 (Windows NT 10.0; Win64; x64) AppleWebKit/537.36 (KHTML, like Gecko) Chrome/125.0.0.0 Safari/537.36" etag="TW0ULyHOHGodBzyXjDVl" version="24.4.13" type="device">
  <diagram name="Page-1" id="sFX0tmbGCqLca-2alxE6">
    <mxGraphModel dx="1434" dy="746" grid="1" gridSize="10" guides="1" tooltips="1" connect="1" arrows="1" fold="1" page="1" pageScale="1" pageWidth="850" pageHeight="1100" math="0" shadow="0">
      <root>
        <mxCell id="0" />
        <mxCell id="1" parent="0" />
        <mxCell id="YbxCJ1iFhJ3McIrBJI3G-6" style="edgeStyle=none;rounded=0;orthogonalLoop=1;jettySize=auto;html=1;exitX=0;exitY=0.3333333333333333;exitDx=0;exitDy=0;exitPerimeter=0;entryX=1;entryY=0.5;entryDx=0;entryDy=0;strokeColor=default;align=center;verticalAlign=middle;fontFamily=Helvetica;fontSize=11;fontColor=default;labelBackgroundColor=default;endArrow=none;" edge="1" parent="1" source="YbxCJ1iFhJ3McIrBJI3G-1" target="YbxCJ1iFhJ3McIrBJI3G-4">
          <mxGeometry relative="1" as="geometry" />
        </mxCell>
        <mxCell id="YbxCJ1iFhJ3McIrBJI3G-1" value="Windows OS Lietotājs" style="shape=umlActor;verticalLabelPosition=bottom;verticalAlign=top;html=1;outlineConnect=0;" vertex="1" parent="1">
          <mxGeometry x="680" y="240" width="70" height="140" as="geometry" />
        </mxCell>
        <mxCell id="YbxCJ1iFhJ3McIrBJI3G-8" style="edgeStyle=none;rounded=0;orthogonalLoop=1;jettySize=auto;html=1;exitX=0.5;exitY=1;exitDx=0;exitDy=0;entryX=0.5;entryY=0;entryDx=0;entryDy=0;strokeColor=default;align=center;verticalAlign=middle;fontFamily=Helvetica;fontSize=11;fontColor=default;labelBackgroundColor=default;endArrow=none;" edge="1" parent="1" source="YbxCJ1iFhJ3McIrBJI3G-4" target="YbxCJ1iFhJ3McIrBJI3G-7">
          <mxGeometry relative="1" as="geometry" />
        </mxCell>
        <mxCell id="YbxCJ1iFhJ3McIrBJI3G-10" style="edgeStyle=none;rounded=0;orthogonalLoop=1;jettySize=auto;html=1;exitX=0.5;exitY=0;exitDx=0;exitDy=0;entryX=0.5;entryY=1;entryDx=0;entryDy=0;strokeColor=default;align=center;verticalAlign=middle;fontFamily=Helvetica;fontSize=11;fontColor=default;labelBackgroundColor=default;endArrow=none;" edge="1" parent="1" source="YbxCJ1iFhJ3McIrBJI3G-4" target="YbxCJ1iFhJ3McIrBJI3G-9">
          <mxGeometry relative="1" as="geometry" />
        </mxCell>
        <mxCell id="YbxCJ1iFhJ3McIrBJI3G-12" style="edgeStyle=none;rounded=0;orthogonalLoop=1;jettySize=auto;html=1;exitX=0;exitY=0.5;exitDx=0;exitDy=0;entryX=1;entryY=0.5;entryDx=0;entryDy=0;strokeColor=default;align=center;verticalAlign=middle;fontFamily=Helvetica;fontSize=11;fontColor=default;labelBackgroundColor=default;endArrow=none;" edge="1" parent="1" source="YbxCJ1iFhJ3McIrBJI3G-4" target="YbxCJ1iFhJ3McIrBJI3G-11">
          <mxGeometry relative="1" as="geometry" />
        </mxCell>
        <mxCell id="YbxCJ1iFhJ3McIrBJI3G-4" value="Startēt Tests.exe&amp;nbsp;" style="ellipse;whiteSpace=wrap;html=1;" vertex="1" parent="1">
          <mxGeometry x="450" y="280" width="120" height="80" as="geometry" />
        </mxCell>
        <mxCell id="YbxCJ1iFhJ3McIrBJI3G-7" value="Apturēt Tests.exe" style="ellipse;whiteSpace=wrap;html=1;fontFamily=Helvetica;fontSize=11;fontColor=default;labelBackgroundColor=default;" vertex="1" parent="1">
          <mxGeometry x="560" y="440" width="120" height="80" as="geometry" />
        </mxCell>
        <mxCell id="YbxCJ1iFhJ3McIrBJI3G-9" value="Ievadīt lietotāja vārdu" style="ellipse;whiteSpace=wrap;html=1;fontFamily=Helvetica;fontSize=11;fontColor=default;labelBackgroundColor=default;" vertex="1" parent="1">
          <mxGeometry x="520" y="120" width="120" height="80" as="geometry" />
        </mxCell>
        <mxCell id="YbxCJ1iFhJ3McIrBJI3G-14" style="edgeStyle=none;rounded=0;orthogonalLoop=1;jettySize=auto;html=1;exitX=0;exitY=0;exitDx=0;exitDy=0;entryX=1;entryY=1;entryDx=0;entryDy=0;strokeColor=default;align=center;verticalAlign=middle;fontFamily=Helvetica;fontSize=11;fontColor=default;labelBackgroundColor=default;endArrow=none;" edge="1" parent="1" source="YbxCJ1iFhJ3McIrBJI3G-11" target="YbxCJ1iFhJ3McIrBJI3G-13">
          <mxGeometry relative="1" as="geometry" />
        </mxCell>
        <mxCell id="YbxCJ1iFhJ3McIrBJI3G-16" style="edgeStyle=none;rounded=0;orthogonalLoop=1;jettySize=auto;html=1;exitX=0;exitY=1;exitDx=0;exitDy=0;entryX=1;entryY=0;entryDx=0;entryDy=0;strokeColor=default;align=center;verticalAlign=middle;fontFamily=Helvetica;fontSize=11;fontColor=default;labelBackgroundColor=default;endArrow=none;" edge="1" parent="1" source="YbxCJ1iFhJ3McIrBJI3G-11" target="YbxCJ1iFhJ3McIrBJI3G-15">
          <mxGeometry relative="1" as="geometry" />
        </mxCell>
        <mxCell id="YbxCJ1iFhJ3McIrBJI3G-18" style="edgeStyle=none;rounded=0;orthogonalLoop=1;jettySize=auto;html=1;exitX=1;exitY=1;exitDx=0;exitDy=0;entryX=0.5;entryY=0;entryDx=0;entryDy=0;strokeColor=default;align=center;verticalAlign=middle;fontFamily=Helvetica;fontSize=11;fontColor=default;labelBackgroundColor=default;endArrow=none;" edge="1" parent="1" source="YbxCJ1iFhJ3McIrBJI3G-11" target="YbxCJ1iFhJ3McIrBJI3G-17">
          <mxGeometry relative="1" as="geometry" />
        </mxCell>
        <mxCell id="YbxCJ1iFhJ3McIrBJI3G-11" value="Pilda testu&amp;nbsp;" style="ellipse;whiteSpace=wrap;html=1;fontFamily=Helvetica;fontSize=11;fontColor=default;labelBackgroundColor=default;" vertex="1" parent="1">
          <mxGeometry x="260" y="280" width="120" height="80" as="geometry" />
        </mxCell>
        <mxCell id="YbxCJ1iFhJ3McIrBJI3G-13" value="Iespēja izvēleties 4 atbildes kur 2 ir pareizas" style="ellipse;whiteSpace=wrap;html=1;fontFamily=Helvetica;fontSize=11;fontColor=default;labelBackgroundColor=default;" vertex="1" parent="1">
          <mxGeometry x="120" y="180" width="150" height="110" as="geometry" />
        </mxCell>
        <mxCell id="YbxCJ1iFhJ3McIrBJI3G-15" value="Pāriet uz nākamo jautājumu" style="ellipse;whiteSpace=wrap;html=1;fontFamily=Helvetica;fontSize=11;fontColor=default;labelBackgroundColor=default;" vertex="1" parent="1">
          <mxGeometry x="130" y="360" width="140" height="100" as="geometry" />
        </mxCell>
        <mxCell id="YbxCJ1iFhJ3McIrBJI3G-17" value="Testa beigās aplūko rezultātu" style="ellipse;whiteSpace=wrap;html=1;fontFamily=Helvetica;fontSize=11;fontColor=default;labelBackgroundColor=default;" vertex="1" parent="1">
          <mxGeometry x="320" y="430" width="120" height="80" as="geometry" />
        </mxCell>
      </root>
    </mxGraphModel>
  </diagram>
</mxfile>
